<svg width="50" height="47" viewBox="0 0 50 47" fill="none" xmlns="http://www.w3.org/2000/svg">
<g clip-path="url(#clip0_0_2893)">
<path d="M21.5679 1.52299L5.70358 10.3676C5.05057 10.7317 4.12056 12.6794 3.55981 14.0317C3.38096 14.463 3.29822 14.9264 3.29822 15.3932V32.8676C3.29822 33.2244 3.34373 33.581 3.46019 33.9183C4.20669 36.0805 5.57723 37.7036 6.39623 38.4529C6.57107 38.6129 6.77105 38.7408 6.98036 38.8522L20.8367 46.225C21.0105 46.3175 21.1735 46.4282 21.3465 46.5224C22.9129 47.374 26.3423 46.9125 28.3081 46.4781C28.6332 46.4063 28.9426 46.2828 29.2342 46.1223L42.2691 38.9473C42.5855 38.7732 42.8803 38.56 43.1125 38.2837C44.3018 36.8682 45.3371 34.5508 45.8854 33.0868C46.0435 32.6647 46.1068 32.2178 46.0941 31.7673C45.9363 26.1452 45.7442 16.0157 46.1136 15.6471C46.428 15.3335 45.4802 13.2913 44.6854 11.7688C44.3683 11.1614 43.8773 10.6644 43.2856 10.3173L27.8329 1.24859C26.8091 0.567657 24.1967 0.842746 22.6116 1.13689C22.2441 1.20511 21.8943 1.34103 21.5679 1.52299Z" fill="#2043DF" stroke="#2043DF" stroke-width="1.5"/>
<path d="M18.1006 30.2715L16.7757 33.0344L13.6842 32.837L20.9713 17.247L26.2709 27.7061H22.9586L24.0059 30.1393H30.0249L22.517 14.0895L24.5044 10.34L34.6622 31.4556C34.8094 31.916 34.8388 32.837 33.7788 32.837L25.3877 33.0344L24.0059 30.1393L24.0627 30.2715H18.1006Z" fill="white"/>
<path d="M19.3986 27.6629L21.1656 24.3729L22.9325 27.6629H19.3986Z" fill="#2043DF"/>
</g>
<defs>
<clipPath id="clip0_0_2893">
<rect width="49.4737" height="47" fill="white"/>
</clipPath>
</defs>
</svg>
