<svg width="20" height="20" viewBox="0 0 20 20" fill="none" xmlns="http://www.w3.org/2000/svg">
<path d="M17.9422 6.0672L7.94219 16.0672C7.88414 16.1253 7.81521 16.1714 7.73934 16.2029C7.66346 16.2343 7.58214 16.2505 7.5 16.2505C7.41787 16.2505 7.33654 16.2343 7.26066 16.2029C7.18479 16.1714 7.11586 16.1253 7.05781 16.0672L2.68281 11.6922C2.56554 11.5749 2.49965 11.4159 2.49965 11.25C2.49965 11.0842 2.56554 10.9251 2.68281 10.8078C2.80009 10.6905 2.95915 10.6247 3.125 10.6247C3.29085 10.6247 3.44991 10.6905 3.56719 10.8078L7.5 14.7414L17.0578 5.18282C17.1751 5.06555 17.3341 4.99966 17.5 4.99966C17.6659 4.99966 17.8249 5.06555 17.9422 5.18282C18.0595 5.3001 18.1253 5.45916 18.1253 5.62501C18.1253 5.79086 18.0595 5.94992 17.9422 6.0672Z" fill="black"/>
</svg>
