<svg width="16" height="19" viewBox="0 0 16 19" fill="none" xmlns="http://www.w3.org/2000/svg">
<path d="M8.34647 18.4005C6.78914 18.4005 5.40247 18.1339 4.18647 17.6005C2.97047 17.0672 2.01047 16.3419 1.30647 15.4245C0.602474 14.4859 0.207807 13.4405 0.122474 12.2885H5.53047C5.59447 12.9072 5.88247 13.4085 6.39447 13.7925C6.90647 14.1765 7.53581 14.3685 8.28247 14.3685C8.96514 14.3685 9.48781 14.2405 9.85047 13.9845C10.2345 13.7072 10.4265 13.3552 10.4265 12.9285C10.4265 12.4165 10.1598 12.0432 9.62647 11.8085C9.09314 11.5525 8.22914 11.2752 7.03447 10.9765C5.75447 10.6779 4.68781 10.3685 3.83447 10.0485C2.98114 9.7072 2.24514 9.18453 1.62647 8.48053C1.00781 7.7552 0.698474 6.78453 0.698474 5.56853C0.698474 4.54453 0.975807 3.61653 1.53047 2.78453C2.10647 1.9312 2.93847 1.2592 4.02647 0.76853C5.13581 0.277863 6.44781 0.0325298 7.96247 0.0325298C10.2025 0.0325298 11.9625 0.587197 13.2425 1.69653C14.5438 2.80586 15.2905 4.27786 15.4825 6.11253H10.4265C10.3411 5.49386 10.0638 5.0032 9.59447 4.64053C9.14647 4.27786 8.54914 4.09653 7.80247 4.09653C7.16247 4.09653 6.67181 4.22453 6.33047 4.48053C5.98914 4.7152 5.81847 5.04586 5.81847 5.47253C5.81847 5.98453 6.08514 6.36853 6.61847 6.62453C7.17314 6.88053 8.02647 7.13653 9.17847 7.39253C10.5011 7.73386 11.5785 8.0752 12.4105 8.41653C13.2425 8.73653 13.9678 9.26986 14.5865 10.0165C15.2265 10.7419 15.5571 11.7232 15.5785 12.9605C15.5785 14.0059 15.2798 14.9445 14.6825 15.7765C14.1065 16.5872 13.2638 17.2272 12.1545 17.6965C11.0665 18.1659 9.79714 18.4005 8.34647 18.4005Z" fill="black"/>
</svg>
